<!-- icon666.com - MILLIONS vector ICONS FREE --><svg id="Layer_1" enable-background="new 0 0 508.099 508.099" viewBox="0 0 508.099 508.099" xmlns="http://www.w3.org/2000/svg"><g><path d="m391.173 227.293c0-75.731-61.392-137.123-137.123-137.123s-137.123 61.392-137.123 137.123c0 49.426 26.16 92.731 65.38 116.861v34.613h143.487v-34.613c39.219-24.129 65.379-67.435 65.379-116.861z" fill="#fef3a8"></path><path d="m167.139 378.767h173.82v66.739h-173.82z" fill="#e5ebf5"></path><path d="m178.104 445.506v35.314l11.803 19.779h128.285l11.803-19.779v-35.314z" fill="#e5ebf5"></path><path d="m136.926 227.293c0-72.368 56.061-131.636 127.123-136.758-3.303-.238-6.636-.365-10-.365-75.731 0-137.123 61.392-137.123 137.123 0 49.426 26.16 92.731 65.38 116.861v34.613h20v-34.613c-39.22-24.129-65.38-67.435-65.38-116.861z" fill="#ffc277"></path><path d="m167.139 378.767h20v66.739h-20z" fill="#c8d1da"></path><path d="m198.104 445.506h-20v35.314l11.803 19.779h20l-11.803-19.779z" fill="#c8d1da"></path><g><path d="m246.55 0h15v59.43h-15z"></path><path d="m307.217 37.815h65.845v15h-65.845z" transform="matrix(.344 -.939 .939 .344 180.645 349.14)"></path><path d="m379.016 91.79h65.888v15h-65.888z" transform="matrix(.767 -.642 .642 .767 32.438 287.791)"></path><path d="m160.46 12.393h14.999v65.845h-14.999z" transform="matrix(.939 -.344 .344 .939 -5.34 60.514)"></path><path d="m88.639 66.346h15v65.888h-15z" transform="matrix(.642 -.767 .767 .642 -41.712 109.202)"></path><path d="m323.583 336.654h-55.264v15h49.972v19.613h-128.48v-31.309l-3.57-2.196c-38.704-23.813-61.81-65.11-61.81-110.472 0-10.163 1.183-20.292 3.517-30.105l-14.593-3.47c-2.604 10.949-3.924 22.246-3.924 33.575 0 25.152 6.56 49.924 18.971 71.639 11.33 19.823 27.321 36.808 46.409 49.339v22.999h-15.17v81.739h10.965v29.882l15.045 25.211h136.802l15.044-25.211v-29.882h10.965v-81.739h-15.17v-23c24.156-15.873 43.396-39.045 54.429-65.666l-13.857-5.743c-10.114 24.397-27.934 45.546-50.281 59.796zm-1.088 142.098-8.562 14.347h-119.767l-8.562-14.347v-25.746h136.891zm10.965-92.484v18.369h-37.907v15h37.907v18.37h-158.82v-18.37h81.19v-15h-81.19v-18.369h.17v.002h158.48v-.002z"></path><path d="m254.05 82.67c-60.837 0-115.539 38.448-136.118 95.672l14.115 5.076c18.444-51.289 67.473-85.748 122.003-85.748 71.473 0 129.62 58.147 129.62 129.62 0 12.292-1.714 24.442-5.094 36.113l14.408 4.173c3.772-13.028 5.686-26.582 5.686-40.286 0-79.744-64.876-144.62-144.62-144.62z"></path></g><g><path d="m300.88 240.969h-15v-15h15zm-45 0h-15v-15h15zm-45 0h-15v-15h15z" fill="#fff"></path></g></g></svg>